<?xml version="1.0" encoding="utf-8"?>
<svg version="1.0" xmlns="http://www.w3.org/2000/svg" viewBox="0 600 2000 900" style="enable-background:new 0 600 2000 500;">

  <rect x="0" y="600" width="2000" height="900" rx="80" ry="80" fill="#FFFFFF"/>

  <g transform="translate(20,2000) scale(0.100000,-0.100000)" fill="#000000" stroke="none">
    <path d="M9245 13674 c-16 -3 -82 -11 -145 -19 -570 -72 -1037 -372 -1260 -809 -109 -216 -161 -438 -161 -693 1 -283 63 -536 197 -805 l44 -88 721 0 721 0 -14 23 c-143 217 -239 441 -273 631 -42 246 -3 455 110 575 62 66 124 104 215 133 65 20 96 23 225 22 167 0 236 -13 343 -65 157 -76 252 -251 252 -462 0 -146 -43 -267 -148 -417 -62 -89 -247 -269 -370 -360 l-101 -75 640 -3 641 -2 19 22 c47 56 163 238 213 336 71 140 110 240 149 381 30 113 31 122 31 326 0 203 -1 214 -31 326 -61 229 -142 376 -295 535 -239 248 -574 401 -1028 470 -101 15 -623 29 -695 18z"/>
    <path d="M15405 13613 c-422 -6 -945 -25 -1175 -43 -244 -19 -520 -46 -567 -56 l-23 -4 0 -1125 0 -1125 730 0 730 0 0 509 0 509 28 7 c59 15 263 26 597 31 374 7 508 -2 723 -46 539 -110 989 -474 1234 -997 111 -236 175 -485 222 -858 51 -403 46 -825 -15 -1254 -67 -479 -177 -793 -386 -1111 -57 -85 -110 -149 -207 -246 -335 -335 -709 -494 -1257 -535 -128 -10 -218 -9 -510 5 -195 9 -371 19 -391 22 l-38 6 0 974 0 974 -730 0 -730 0 0 -1590 c0 -1265 3 -1590 13 -1590 6 0 50 -5 97 -10 83 -10 684 -47 1150 -72 371 -19 1148 -17 1349 5 572 61 983 177 1408 397 627 325 1069 770 1379 1392 221 442 358 988 415 1653 17 203 14 711 -5 935 -77 862 -293 1505 -682 2025 -256 342 -551 590 -946 794 -507 263 -1031 389 -1749 421 -123 5 -287 9 -364 8 -77 -2 -212 -4 -300 -5z"/>
    <path d="M3291 13552 c-6 -11 -468 -1299 -1027 -2863 -558 -1564 -1157 -3239 -1330 -3723 -173 -483 -314 -880 -314 -882 0 -2 327 -3 726 -2 l727 3 281 822 281 823 1141 0 1140 0 294 -815 c161 -448 296 -819 300 -825 4 -7 251 -9 767 -8 l761 3 -314 880 c-173 484 -427 1196 -566 1583 l-251 702 -713 0 c-393 0 -714 -1 -714 -3 0 -1 25 -77 55 -167 30 -90 55 -168 55 -172 0 -4 -356 -8 -791 -8 -629 0 -790 3 -786 13 2 6 124 377 269 822 l266 810 111 581 c61 320 111 585 111 589 0 3 12 5 27 3 l28 -3 42 -224 c23 -123 44 -225 46 -227 2 -3 290 -3 639 -2 l636 3 -412 1150 -411 1150 -532 3 c-511 2 -533 1 -542 -16z"/>
    <path d="M8989 10981 c-59 -60 -24 -151 58 -151 72 0 114 53 92 117 -21 64 -101 83 -150 34z"/>
    <path d="M5200 10410 l0 -590 70 0 70 0 0 590 0 590 -70 0 -70 0 0 -590z"/>
    <path d="M6170 10824 c0 -159 -2 -176 -16 -170 -9 4 -48 11 -85 16 -193 27 -360 -58 -418 -215 -65 -172 -44 -425 44 -547 65 -90 213 -130 339 -94 46 14 70 29 111 70 l53 53 17 -59 16 -58 42 0 42 0 -3 577 c-1 318 -4 584 -7 591 -3 8 -27 12 -70 12 l-65 0 0 -176z m-32 -288 l32 -17 0 -223 0 -224 -28 -53 c-35 -67 -90 -99 -170 -99 -119 0 -188 70 -213 214 -12 74 -7 194 11 257 21 74 71 127 146 155 50 18 178 13 222 -10z"/>
    <path d="M11270 10410 l0 -590 350 0 350 0 0 60 0 60 -280 0 -280 0 0 530 0 530 -70 0 -70 0 0 -590z"/>
    <path d="M12990 10431 l0 -569 68 -24 c58 -20 86 -23 207 -23 131 0 144 2 197 27 155 73 228 229 215 462 -8 148 -35 225 -102 292 -41 41 -65 56 -110 70 -113 32 -243 6 -317 -64 l-28 -26 0 212 0 212 -65 0 -65 0 0 -569z m436 110 c83 -50 120 -155 111 -316 -6 -121 -27 -185 -78 -236 -68 -68 -203 -87 -307 -44 l-33 14 3 229 3 229 30 49 c42 67 91 94 175 94 47 0 74 -5 96 -19z"/>
    <path d="M8448 10843 l-47 -14 -3 -82 -3 -82 -68 -3 -68 -3 3 -57 3 -57 67 -3 67 -3 3 -312 c3 -291 4 -314 23 -346 36 -62 66 -76 158 -76 99 0 207 29 207 55 0 13 -18 78 -24 87 -1 1 -20 -4 -41 -12 -22 -8 -63 -14 -91 -15 -42 0 -55 4 -75 26 l-24 26 -3 283 -3 284 113 3 113 3 3 58 3 57 -116 0 -115 0 0 100 c0 113 3 110 -82 83z"/>
    <path d="M9493 10843 l-53 -16 0 -83 0 -84 -65 0 -65 0 0 -60 0 -60 64 0 65 0 3 -302 c3 -288 4 -305 25 -351 18 -39 31 -51 70 -69 39 -17 59 -20 122 -15 73 6 166 31 176 47 3 4 0 23 -6 41 -6 19 -12 39 -14 46 -3 10 -14 9 -46 -2 -43 -15 -115 -20 -144 -9 -8 4 -23 21 -33 38 -14 27 -17 70 -20 304 l-4 272 116 0 116 0 0 60 0 60 -115 0 -115 0 0 100 c0 112 4 107 -77 83z"/>
    <path d="M6764 10660 c-151 -48 -234 -195 -234 -415 0 -216 65 -348 202 -411 57 -26 73 -29 168 -29 112 0 214 25 262 65 l23 18 -23 46 -22 46 -52 -26 c-94 -48 -239 -44 -319 8 -48 32 -90 120 -97 203 l-5 65 271 0 270 0 7 68 c13 133 -24 254 -96 316 -76 64 -232 84 -355 46z m237 -122 c47 -26 77 -82 81 -153 l3 -50 -207 -3 c-235 -3 -221 -9 -194 81 31 102 94 147 210 147 52 0 78 -5 107 -22z"/>
    <path d="M7745 10671 c-48 -12 -100 -40 -143 -77 l-41 -35 -10 38 c-6 21 -11 44 -11 51 0 8 -17 12 -50 12 l-50 0 0 -420 0 -420 70 0 70 0 0 295 c0 333 -2 326 76 394 52 45 87 55 174 49 49 -3 65 -10 90 -33 54 -51 60 -96 60 -417 l0 -288 70 0 70 0 0 268 c0 147 -5 300 -10 341 -18 136 -72 215 -165 240 -44 12 -153 13 -200 2z"/>
    <path d="M12274 10655 c-54 -12 -144 -49 -144 -59 0 -3 9 -24 19 -49 l19 -44 74 25 c93 31 236 37 284 10 42 -23 64 -80 64 -168 l0 -70 -107 0 c-188 0 -314 -42 -370 -123 -22 -32 -28 -53 -31 -109 -5 -85 14 -140 66 -191 98 -96 296 -89 404 14 23 22 45 36 48 32 4 -5 13 -29 20 -55 l13 -48 49 0 c50 0 50 0 42 28 -5 15 -9 171 -9 347 0 308 -1 321 -21 360 -47 87 -109 115 -254 114 -58 0 -133 -7 -166 -14z m306 -535 c0 -75 -2 -81 -32 -115 -46 -53 -101 -77 -173 -78 -101 -1 -160 51 -157 139 2 46 15 68 56 94 45 27 100 38 214 39 l92 1 0 -80z"/>
    <path d="M8990 10240 l0 -420 65 0 65 0 0 420 0 420 -65 0 -65 0 0 -420z"/>
    <path d="M9900 10651 c0 -4 74 -192 165 -417 183 -452 177 -426 124 -532 -34 -69 -77 -102 -131 -102 -34 0 -35 -1 -45 -55 -11 -63 -9 -65 73 -65 65 0 100 16 143 65 56 64 92 153 252 635 88 261 159 475 159 477 0 2 -30 3 -67 3 l-68 0 -83 -278 c-45 -152 -90 -310 -99 -349 -9 -40 -20 -73 -23 -73 -4 0 -15 30 -25 68 -10 37 -65 192 -122 346 -57 153 -103 280 -103 282 0 2 -34 4 -75 4 -41 0 -75 -4 -75 -9z"/>
    <path d="M6740 9191 c-71 -142 -152 -376 -189 -546 -38 -178 -46 -266 -46 -500 1 -255 18 -388 76 -590 166 -579 614 -1071 1219 -1338 248 -109 502 -179 830 -228 198 -30 710 -38 940 -14 259 26 491 72 690 137 370 120 865 404 1175 674 l71 61 114 -105 c335 -307 688 -565 982 -717 75 -38 138 -68 140 -65 10 12 715 996 721 1006 4 6 -45 40 -121 84 -298 172 -538 342 -796 565 -77 66 -151 129 -164 141 l-26 21 73 99 c151 203 345 510 500 787 102 182 291 561 291 583 0 2 -276 4 -612 4 l-613 0 -60 -117 c-103 -202 -261 -440 -385 -583 l-30 -34 -61 59 c-91 89 -365 391 -492 542 l-112 132 -753 1 c-722 0 -753 -1 -740 -18 310 -424 731 -922 1237 -1462 l79 -85 -31 -34 c-165 -173 -513 -372 -799 -455 -286 -82 -633 -95 -946 -35 -491 95 -846 372 -972 759 -77 239 -63 599 34 853 54 141 145 295 245 415 l52 62 -745 0 -746 0 -30 -59z"/>
  </g>
</svg>
